<?xml version="1.0" encoding="utf-8"?>
<!-- Generator: Adobe Illustrator 16.0.3, SVG Export Plug-In . SVG Version: 6.00 Build 0)  -->
<!DOCTYPE svg PUBLIC "-//W3C//DTD SVG 1.1//EN" "http://www.w3.org/Graphics/SVG/1.1/DTD/svg11.dtd">
<svg version="1.1" id="Capa_1" xmlns="http://www.w3.org/2000/svg" xmlns:xlink="http://www.w3.org/1999/xlink" x="0px" y="0px"
	 width="500px" height="500px" viewBox="0 0 500 500" enable-background="new 0 0 500 500" xml:space="preserve">
<g>
	<defs>
		<rect id="SVGID_1_" width="500" height="500"/>
	</defs>
	<clipPath id="SVGID_2_">
		<use xlink:href="#SVGID_1_"  overflow="visible"/>
	</clipPath>
	<path clip-path="url(#SVGID_2_)" fill="#AB8944" d="M362.919,319.472c-8.098-5.509-12.273-12.855-12.179-22.747
		c0.128-13.306,0.056-26.615,0.022-39.923c-0.025-9.971-1.832-19.624-5.858-28.749c-1.106-2.507-1.338-4.856-0.985-7.44
		c0.406-2.972,1.559-4.106,4.526-4.267c6.606-0.359,11.726-5.546,11.793-11.951c0.065-6.329-5.147-11.769-11.644-12.149
		c-3.248-0.19-4.26-1.289-4.729-4.619c-0.253-1.79-0.595-3.669-1.389-5.262c-2.426-4.871-7.855-7.262-13.317-6.134
		c-5.128,1.059-9.137,5.794-9.356,11.326c-0.091,2.279-0.756,4.13-3.089,4.466c-1.628,0.234-3.484-0.001-5.034-0.576
		c-3.816-1.416-7.428-3.417-11.285-4.686c-4.454-1.466-9.082-2.401-13.79-3.606c2.582-4.549,3.393-9.332,1.555-14.385
		c-1.855-5.1-5.596-8.299-10.828-10.289c3.312-3.284,6.41-6.212,9.348-9.294c8.468-8.884,5.16-22.802-6.352-26.963
		c-0.59-0.213-1.142-0.534-1.71-0.805h-7.019c-6.517,2.032-10.473,7.348-15.071,11.829c-2.138,2.082-4.179,4.261-6.463,6.6
		c-3.613-3.655-7.078-7.01-10.367-10.531c-3.205-3.432-6.686-6.386-11.21-7.898h-7.019c-0.092,0.127-0.165,0.344-0.28,0.37
		c-12.19,2.732-17.61,18.923-6.4,28.846c2.716,2.405,5.211,5.062,8.059,7.848c-5.407,2.034-9.05,5.229-10.919,10.258
		c-1.901,5.117-0.922,9.958,1.623,14.698c-1.775,0.299-3.297,0.382-4.709,0.823c-5.706,1.783-11.417,3.571-17.046,5.58
		c-2.332,0.833-3.132,3.089-2.313,5.097c0.841,2.057,3.035,2.788,5.478,1.819c0.31-0.123,0.607-0.276,0.912-0.411
		c8.415-3.734,17.195-5.737,26.428-5.723c18.458,0.029,36.917-0.153,55.371,0.107c5.532,0.078,11.113,1.02,16.549,2.156
		c3.978,0.832,7.753,2.628,11.713,4.028c-0.409,0.771-0.518,0.993-0.641,1.207c-4.958,8.641,1.627,18.279,10.199,18.256
		c2.89-0.008,4.096,1.412,4.267,4.408c0.368,6.456,4.858,11.356,11.147,11.717c2.331,0.134,4.71-0.562,7.255-0.905
		c2.543,5.956,4.432,12.394,4.581,19.096c0.337,15.223,0.279,30.452,0.421,45.679c0.021,2.336,0.017,4.709,0.406,6.998
		c1.649,9.699,6.892,17.034,15.032,22.404c6.954,4.587,10.882,11.1,11.207,19.396c0.568,14.467-10.222,25.628-24.699,25.865
		c-5.178,0.084-10.363-0.137-15.529,0.123c-1.291,0.065-3.154,1.201-3.593,2.307c-0.445,1.124,0.507,2.83,0.932,4.256
		c0.101,0.339,0.54,0.577,0.823,0.861H349.8c0.544-0.175,1.076-0.412,1.633-0.515c14.247-2.601,25.357-15.306,25.974-29.768
		C377.929,336.001,373.018,326.34,362.919,319.472 M218.997,143.938c-3.543-3.632-3.556-8.965-0.146-12.362
		c3.5-3.486,8.609-3.522,12.332,0.104c5.15,5.017,10.176,10.162,15.268,15.239c2.769,2.76,4.413,2.764,7.186,0
		c5.095-5.074,10.099-10.243,15.273-15.234c4.868-4.695,12.322-2.958,14.373,3.285c1.005,3.06,0.588,6.04-1.697,8.411
		c-4.526,4.694-9.15,9.296-13.813,13.853c-0.56,0.547-1.613,0.805-2.444,0.817c-5.179,0.072-10.357,0.036-15.536,0.036
		c-4.929,0.001-9.859,0.067-14.785-0.053c-1.037-0.025-2.315-0.463-3.045-1.166C227.566,152.635,223.26,148.307,218.997,143.938
		 M275.749,182.311c-1.231,0.408-2.612,0.492-3.926,0.5c-7.346,0.046-14.69,0.022-22.035,0.022
		c-7.261-0.001-14.526-0.139-21.783,0.043c-5.722,0.144-9.322-3.89-9.446-8.546c-0.133-5.005,3.975-8.702,9.574-8.708
		c14.773-0.017,29.546-0.032,44.32,0.01c4.862,0.014,8.306,3.046,9.006,7.704C282.02,177.076,279.576,181.045,275.749,182.311
		 M336.291,220.645c-0.205,2.455-1.807,4.135-4.08,4.279c-2.477,0.157-4.223-1.252-4.693-3.868
		c-0.235-1.312-0.213-2.685-0.561-3.961c-1.304-4.789-5.47-8.037-10.442-8.274c-3.27-0.157-5.289-1.852-5.313-4.464
		c-0.026-2.582,2.038-4.386,5.249-4.587c6.083-0.381,10.307-4.532,10.88-10.683c0.054-0.582,0.1-1.17,0.22-1.74
		c0.516-2.459,2.216-3.809,4.598-3.685c2.285,0.118,3.924,1.787,4.142,4.218c0.682,7.6,4.114,11.138,11.544,11.904
		c2.84,0.292,4.658,2.122,4.61,4.641c-0.047,2.453-1.814,4.159-4.55,4.387C340.565,209.424,336.919,213.144,336.291,220.645"/>
	<path clip-path="url(#SVGID_2_)" fill="#AB8944" d="M316.83,372.136c-1.002-0.767-2.602-1.042-3.931-1.044
		c-51.957-0.049-103.914-0.042-155.871-0.043c-1.002,0-2.006,0.013-3.006-0.037c-13.803-0.679-24.054-11.45-23.766-25.29
		c0.18-8.636,4.211-15.283,11.377-20.074c10.212-6.829,15.456-16.341,15.308-28.73c-0.032-2.663-0.005-5.327-0.005-7.937
		c5.789-1.753,9.346-5.223,9.858-11.209c0.317-3.706,1.119-4.678,4.788-5.055c6.854-0.706,11.606-5.748,11.488-12.189
		c-0.118-6.425-5.132-11.512-11.816-11.989c-3.135-0.223-4.307-1.378-4.423-4.524c-0.13-3.551-1.481-6.569-4.24-8.721
		c-1.474-1.149-1.405-2.107-0.793-3.585c3.671-8.856,8.914-16.616,15.918-23.159c1.647-1.539,3.45-2.911,5.076-4.47
		c1.479-1.417,1.59-3.814,0.284-5.213c-1.442-1.544-3.165-1.744-4.976-0.643c-0.638,0.388-1.217,0.882-1.796,1.359
		c-10.074,8.309-17.522,18.526-22.105,30.782c-0.528,1.411-1.316,2.063-2.709,2.481c-5.346,1.605-8.405,5.62-8.723,11.221
		c-0.175,3.082-1.347,4.246-4.5,4.474c-7.577,0.548-12.709,6.896-11.546,14.281c0.827,5.253,5.279,9.31,10.816,9.856
		c3.827,0.379,5.112,1.363,5.198,4.392c0.122,4.271,2.028,7.473,5.375,9.976c0.526,0.393,1.142,1.111,1.146,1.684
		c0.032,4.263,0.294,8.573-0.225,12.78c-1.009,8.173-5.83,13.833-12.487,18.447c-10.798,7.485-15.452,18.222-13.587,31.106
		c1.913,13.226,9.833,21.973,22.539,26.227c1.566,0.524,3.191,0.866,4.789,1.292h165.427
		C318.477,376.25,319.012,373.806,316.83,372.136 M138.512,265.099c-2.459-0.195-4.15-1.779-4.308-4.036
		c-0.164-2.332,1.182-4.09,3.617-4.656c0.727-0.169,1.48-0.243,2.225-0.321c5.731-0.601,9.957-5.044,10.232-10.771
		c0.159-3.309,1.78-5.284,4.398-5.357c2.696-0.076,4.475,1.99,4.638,5.385c0.275,5.736,4.478,10.143,10.244,10.743
		c4.035,0.42,5.768,1.757,5.832,4.501c0.055,2.389-1.639,4.25-4.1,4.505c-8.007,0.83-11.008,3.811-12.006,11.921
		c-0.329,2.672-2.133,4.336-4.637,4.275c-2.471-0.06-4.145-1.807-4.36-4.55C149.714,269.454,145.901,265.686,138.512,265.099"/>
	<path clip-path="url(#SVGID_2_)" fill="#AB8944" d="M224.001,249.532c-2.446,0.041-4.052,1.667-4.01,3.865
		c0.041,2.09,1.583,3.581,3.927,3.672c1.802,0.068,3.609,0.013,5.457,0.013v47.255c-1.923,0-3.742-0.096-5.547,0.023
		c-2.323,0.153-3.882,1.751-3.823,3.837c0.065,2.285,1.415,3.506,3.578,3.797c1.151,0.155,2.333,0.091,3.501,0.095
		c2.797,0.011,5.594,0.004,8.539,0.004c0,3.438-0.069,6.443,0.019,9.444c0.091,3.069,2.301,4.967,4.862,4.208
		c2.17-0.643,2.881-2.371,2.89-4.473c0.012-2.984,0.003-5.968,0.003-9.034h8.266c0,3.213-0.081,6.288,0.022,9.356
		c0.108,3.26,2.738,5.138,5.377,3.951c1.864-0.837,2.362-2.467,2.371-4.333c0.012-2.981,0.003-5.964,0.003-8.884
		c12.158-1.765,18.225-6.335,20.157-14.97c2.01-8.978-1.289-15.622-11.095-22.225c0.386-0.711,0.787-1.43,1.17-2.158
		c3.836-7.312,1.912-16.93-5.42-20.555c-4.816-2.383-5.166-5.375-4.816-9.546c0.063-0.748,0.02-1.506,0.006-2.259
		c-0.057-3.063-1.46-4.92-3.775-5.004c-2.396-0.088-3.97,1.863-3.998,5.021c-0.024,2.895-0.005,5.791-0.005,8.754h-8.26
		c0-1.178,0.005-2.242-0.001-3.307c-0.014-2.259,0.083-4.527-0.086-6.774c-0.155-2.069-1.419-3.46-3.505-3.633
		c-1.945-0.161-3.39,0.839-3.912,2.798c-0.232,0.871-0.255,1.813-0.266,2.724c-0.032,2.721-0.012,5.443-0.012,8.32
		C231.495,249.516,227.747,249.47,224.001,249.532 M237.136,257.301c6.66,0,13.23-0.308,19.754,0.108
		c4.314,0.276,7.179,4.24,7.015,8.362c-0.17,4.244-3.15,7.756-7.502,7.948c-6.379,0.284-12.78,0.073-19.267,0.073V257.301z
		 M237.122,281.766c0.636-0.059,1.191-0.152,1.746-0.153c7.424-0.009,14.848-0.038,22.272,0.004
		c6.287,0.035,11.309,5.047,11.383,11.268c0.072,6.153-4.953,11.346-11.223,11.405c-7.99,0.077-15.981,0.02-24.179,0.02V281.766z"/>
</g>
</svg>
