<svg xmlns="http://www.w3.org/2000/svg" xmlns:xlink="http://www.w3.org/1999/xlink" version="1.1" width="256" height="256" viewBox="0 0 256 256" xml:space="preserve">
<desc>Created with Fabric.js 1.7.22</desc>
<defs>
</defs>
<g transform="translate(128 128) scale(0.72 0.72)" style="">
	<g style="stroke: none; stroke-width: 0; stroke-dasharray: none; stroke-linecap: butt; stroke-linejoin: miter; stroke-miterlimit: 10; fill: none; fill-rule: nonzero; opacity: 1;" transform="translate(-175.05 -175.05000000000004) scale(3.89 3.89)" >
	<path d="M 77.436 75.039 c -0.149 0 -0.299 -0.033 -0.438 -0.101 l -11.564 -5.62 c -0.344 -0.167 -0.563 -0.517 -0.563 -0.899 s 0.219 -0.732 0.563 -0.899 l 11.564 -5.62 c 0.277 -0.135 0.598 -0.135 0.875 0 l 11.564 5.62 C 89.781 67.687 90 68.036 90 68.419 s -0.219 0.732 -0.563 0.899 l -11.564 5.62 C 77.734 75.006 77.585 75.039 77.436 75.039 z M 68.159 68.419 l 9.276 4.508 l 9.276 -4.508 l -9.276 -4.508 L 68.159 68.419 z" style="stroke: none; stroke-width: 1; stroke-dasharray: none; stroke-linecap: butt; stroke-linejoin: miter; stroke-miterlimit: 10; fill: rgb(0,0,0); fill-rule: nonzero; opacity: 1;" transform=" matrix(1 0 0 1 0 0) " stroke-linecap="round" />
	<path d="M 77.436 88.829 c -0.149 0 -0.299 -0.033 -0.438 -0.101 l -11.564 -5.62 c -0.344 -0.167 -0.563 -0.517 -0.563 -0.899 v -13.79 c 0 -0.345 0.178 -0.665 0.47 -0.848 c 0.291 -0.184 0.658 -0.203 0.968 -0.052 l 11.127 5.407 l 11.127 -5.407 c 0.311 -0.15 0.676 -0.131 0.968 0.052 S 90 68.074 90 68.419 v 13.79 c 0 0.383 -0.219 0.732 -0.563 0.899 l -11.564 5.62 C 77.734 88.796 77.585 88.829 77.436 88.829 z M 66.871 81.583 l 10.564 5.134 L 88 81.583 V 70.017 l -10.127 4.922 c -0.277 0.135 -0.598 0.135 -0.875 0 l -10.127 -4.922 V 81.583 z" style="stroke: none; stroke-width: 1; stroke-dasharray: none; stroke-linecap: butt; stroke-linejoin: miter; stroke-miterlimit: 10; fill: rgb(0,0,0); fill-rule: nonzero; opacity: 1;" transform=" matrix(1 0 0 1 0 0) " stroke-linecap="round" />
	<path d="M 77.436 88.829 c -0.553 0 -1 -0.447 -1 -1 v -13.79 c 0 -0.553 0.447 -1 1 -1 s 1 0.447 1 1 v 13.79 C 78.436 88.382 77.988 88.829 77.436 88.829 z" style="stroke: none; stroke-width: 1; stroke-dasharray: none; stroke-linecap: butt; stroke-linejoin: miter; stroke-miterlimit: 10; fill: rgb(0,0,0); fill-rule: nonzero; opacity: 1;" transform=" matrix(1 0 0 1 0 0) " stroke-linecap="round" />
	<path d="M 12.564 75.039 c -0.149 0 -0.299 -0.033 -0.437 -0.101 l -11.564 -5.62 C 0.219 69.151 0 68.802 0 68.419 s 0.219 -0.732 0.563 -0.899 l 11.564 -5.62 c 0.275 -0.135 0.599 -0.135 0.874 0 l 11.565 5.62 c 0.344 0.167 0.563 0.517 0.563 0.899 s -0.219 0.732 -0.563 0.899 l -11.565 5.62 C 12.864 75.006 12.714 75.039 12.564 75.039 z M 3.288 68.419 l 9.277 4.508 l 9.277 -4.508 l -9.277 -4.508 L 3.288 68.419 z" style="stroke: none; stroke-width: 1; stroke-dasharray: none; stroke-linecap: butt; stroke-linejoin: miter; stroke-miterlimit: 10; fill: rgb(0,0,0); fill-rule: nonzero; opacity: 1;" transform=" matrix(1 0 0 1 0 0) " stroke-linecap="round" />
	<path d="M 12.564 88.829 c -0.149 0 -0.299 -0.033 -0.437 -0.101 l -11.564 -5.62 C 0.219 82.941 0 82.592 0 82.209 v -13.79 c 0 -0.345 0.177 -0.665 0.47 -0.848 c 0.293 -0.184 0.659 -0.203 0.967 -0.052 l 11.127 5.407 l 11.128 -5.407 c 0.309 -0.15 0.674 -0.132 0.968 0.052 c 0.292 0.183 0.469 0.503 0.469 0.848 v 13.79 c 0 0.383 -0.219 0.732 -0.563 0.899 l -11.565 5.62 C 12.864 88.796 12.714 88.829 12.564 88.829 z M 2 81.583 l 10.564 5.134 l 10.565 -5.134 V 70.017 l -10.128 4.922 c -0.275 0.135 -0.599 0.135 -0.874 0 L 2 70.017 V 81.583 z" style="stroke: none; stroke-width: 1; stroke-dasharray: none; stroke-linecap: butt; stroke-linejoin: miter; stroke-miterlimit: 10; fill: rgb(0,0,0); fill-rule: nonzero; opacity: 1;" transform=" matrix(1 0 0 1 0 0) " stroke-linecap="round" />
	<path d="M 12.564 88.829 c -0.552 0 -1 -0.447 -1 -1 v -13.79 c 0 -0.553 0.448 -1 1 -1 s 1 0.447 1 1 v 13.79 C 13.564 88.382 13.117 88.829 12.564 88.829 z" style="stroke: none; stroke-width: 1; stroke-dasharray: none; stroke-linecap: butt; stroke-linejoin: miter; stroke-miterlimit: 10; fill: rgb(0,0,0); fill-rule: nonzero; opacity: 1;" transform=" matrix(1 0 0 1 0 0) " stroke-linecap="round" />
	<path d="M 12.564 14.411 c -0.149 0 -0.299 -0.034 -0.437 -0.101 L 0.563 8.69 C 0.219 8.523 0 8.174 0 7.791 s 0.219 -0.732 0.563 -0.899 l 11.564 -5.62 c 0.275 -0.134 0.599 -0.134 0.874 0 l 11.565 5.62 c 0.344 0.167 0.563 0.517 0.563 0.899 s -0.219 0.732 -0.563 0.899 l -11.565 5.62 C 12.864 14.377 12.714 14.411 12.564 14.411 z M 3.288 7.791 l 9.277 4.508 l 9.277 -4.508 l -9.277 -4.508 L 3.288 7.791 z" style="stroke: none; stroke-width: 1; stroke-dasharray: none; stroke-linecap: butt; stroke-linejoin: miter; stroke-miterlimit: 10; fill: rgb(0,0,0); fill-rule: nonzero; opacity: 1;" transform=" matrix(1 0 0 1 0 0) " stroke-linecap="round" />
	<path d="M 12.564 28.201 c -0.149 0 -0.299 -0.034 -0.437 -0.101 L 0.563 22.48 C 0.219 22.313 0 21.964 0 21.581 V 7.791 c 0 -0.345 0.177 -0.665 0.47 -0.848 C 0.763 6.76 1.128 6.74 1.437 6.892 l 11.127 5.408 l 11.128 -5.408 c 0.309 -0.151 0.674 -0.131 0.968 0.052 c 0.292 0.183 0.469 0.503 0.469 0.848 v 13.79 c 0 0.383 -0.219 0.732 -0.563 0.899 l -11.565 5.62 C 12.864 28.167 12.714 28.201 12.564 28.201 z M 2 20.955 l 10.564 5.134 l 10.565 -5.134 V 9.389 l -10.128 4.922 c -0.275 0.134 -0.599 0.134 -0.874 0 L 2 9.389 V 20.955 z" style="stroke: none; stroke-width: 1; stroke-dasharray: none; stroke-linecap: butt; stroke-linejoin: miter; stroke-miterlimit: 10; fill: rgb(0,0,0); fill-rule: nonzero; opacity: 1;" transform=" matrix(1 0 0 1 0 0) " stroke-linecap="round" />
	<path d="M 12.564 28.201 c -0.552 0 -1 -0.448 -1 -1 v -13.79 c 0 -0.552 0.448 -1 1 -1 s 1 0.448 1 1 v 13.79 C 13.564 27.753 13.117 28.201 12.564 28.201 z" style="stroke: none; stroke-width: 1; stroke-dasharray: none; stroke-linecap: butt; stroke-linejoin: miter; stroke-miterlimit: 10; fill: rgb(0,0,0); fill-rule: nonzero; opacity: 1;" transform=" matrix(1 0 0 1 0 0) " stroke-linecap="round" />
	<path d="M 77.436 14.411 c -0.149 0 -0.299 -0.034 -0.438 -0.101 L 65.434 8.69 c -0.344 -0.167 -0.563 -0.517 -0.563 -0.899 s 0.219 -0.732 0.563 -0.899 l 11.564 -5.62 c 0.277 -0.134 0.598 -0.134 0.875 0 l 11.564 5.62 C 89.781 7.059 90 7.408 90 7.791 s -0.219 0.732 -0.563 0.899 l -11.564 5.62 C 77.734 14.377 77.585 14.411 77.436 14.411 z M 68.159 7.791 l 9.276 4.508 l 9.276 -4.508 l -9.276 -4.508 L 68.159 7.791 z" style="stroke: none; stroke-width: 1; stroke-dasharray: none; stroke-linecap: butt; stroke-linejoin: miter; stroke-miterlimit: 10; fill: rgb(0,0,0); fill-rule: nonzero; opacity: 1;" transform=" matrix(1 0 0 1 0 0) " stroke-linecap="round" />
	<path d="M 77.436 28.201 c -0.149 0 -0.299 -0.034 -0.438 -0.101 l -11.564 -5.62 c -0.344 -0.167 -0.563 -0.517 -0.563 -0.899 V 7.791 c 0 -0.345 0.178 -0.665 0.47 -0.848 c 0.291 -0.183 0.658 -0.203 0.968 -0.052 l 11.127 5.408 l 11.127 -5.408 c 0.311 -0.15 0.676 -0.131 0.968 0.052 C 89.822 7.126 90 7.446 90 7.791 v 13.79 c 0 0.383 -0.219 0.732 -0.563 0.899 l -11.564 5.62 C 77.734 28.167 77.585 28.201 77.436 28.201 z M 66.871 20.955 l 10.564 5.134 L 88 20.955 V 9.389 l -10.127 4.922 c -0.277 0.134 -0.598 0.134 -0.875 0 L 66.871 9.389 V 20.955 z" style="stroke: none; stroke-width: 1; stroke-dasharray: none; stroke-linecap: butt; stroke-linejoin: miter; stroke-miterlimit: 10; fill: rgb(0,0,0); fill-rule: nonzero; opacity: 1;" transform=" matrix(1 0 0 1 0 0) " stroke-linecap="round" />
	<path d="M 77.436 28.201 c -0.553 0 -1 -0.448 -1 -1 v -13.79 c 0 -0.552 0.447 -1 1 -1 s 1 0.448 1 1 v 13.79 C 78.436 27.753 77.988 28.201 77.436 28.201 z" style="stroke: none; stroke-width: 1; stroke-dasharray: none; stroke-linecap: butt; stroke-linejoin: miter; stroke-miterlimit: 10; fill: rgb(0,0,0); fill-rule: nonzero; opacity: 1;" transform=" matrix(1 0 0 1 0 0) " stroke-linecap="round" />
	<path d="M 45 44.725 c -0.149 0 -0.299 -0.034 -0.437 -0.101 l -11.564 -5.62 c -0.344 -0.167 -0.563 -0.517 -0.563 -0.899 s 0.219 -0.732 0.563 -0.899 l 11.564 -5.62 c 0.275 -0.134 0.599 -0.134 0.874 0 l 11.565 5.62 c 0.344 0.167 0.563 0.517 0.563 0.899 s -0.219 0.732 -0.563 0.899 l -11.565 5.62 C 45.299 44.691 45.149 44.725 45 44.725 z M 35.723 38.105 L 45 42.613 l 9.276 -4.508 L 45 33.597 L 35.723 38.105 z" style="stroke: none; stroke-width: 1; stroke-dasharray: none; stroke-linecap: butt; stroke-linejoin: miter; stroke-miterlimit: 10; fill: rgb(0,0,0); fill-rule: nonzero; opacity: 1;" transform=" matrix(1 0 0 1 0 0) " stroke-linecap="round" />
	<path d="M 45 58.515 c -0.149 0 -0.299 -0.033 -0.437 -0.101 l -11.564 -5.62 c -0.344 -0.167 -0.563 -0.517 -0.563 -0.899 v -13.79 c 0 -0.345 0.177 -0.665 0.47 -0.848 c 0.293 -0.183 0.659 -0.203 0.967 -0.052 L 45 42.613 l 11.127 -5.408 c 0.311 -0.15 0.677 -0.13 0.968 0.052 c 0.292 0.183 0.47 0.503 0.47 0.848 v 13.79 c 0 0.383 -0.219 0.732 -0.563 0.899 l -11.565 5.62 C 45.299 58.481 45.149 58.515 45 58.515 z M 34.436 51.269 L 45 56.402 l 10.564 -5.134 V 39.703 l -10.127 4.922 c -0.275 0.134 -0.599 0.134 -0.874 0 l -10.127 -4.922 V 51.269 z" style="stroke: none; stroke-width: 1; stroke-dasharray: none; stroke-linecap: butt; stroke-linejoin: miter; stroke-miterlimit: 10; fill: rgb(0,0,0); fill-rule: nonzero; opacity: 1;" transform=" matrix(1 0 0 1 0 0) " stroke-linecap="round" />
	<path d="M 45 58.515 c -0.552 0 -1 -0.447 -1 -1 v -13.79 c 0 -0.552 0.448 -1 1 -1 s 1 0.448 1 1 v 13.79 C 46 58.067 45.552 58.515 45 58.515 z" style="stroke: none; stroke-width: 1; stroke-dasharray: none; stroke-linecap: butt; stroke-linejoin: miter; stroke-miterlimit: 10; fill: rgb(0,0,0); fill-rule: nonzero; opacity: 1;" transform=" matrix(1 0 0 1 0 0) " stroke-linecap="round" />
	<rect x="50.89" y="28.7" rx="0" ry="0" width="20.08" height="2" style="stroke: none; stroke-width: 1; stroke-dasharray: none; stroke-linecap: butt; stroke-linejoin: miter; stroke-miterlimit: 10; fill: rgb(0,0,0); fill-rule: nonzero; opacity: 1;" transform=" matrix(0.712 -0.7022 0.7022 0.712 -3.3083 51.3397) "/>
	<rect x="59.35" y="50.54" rx="0" ry="0" width="2" height="20.08" style="stroke: none; stroke-width: 1; stroke-dasharray: none; stroke-linecap: butt; stroke-linejoin: miter; stroke-miterlimit: 10; fill: rgb(0,0,0); fill-rule: nonzero; opacity: 1;" transform=" matrix(0.7024 -0.7117 0.7117 0.7024 -25.1562 60.9806) "/>
	<rect x="28.07" y="19.66" rx="0" ry="0" width="2" height="20.08" style="stroke: none; stroke-width: 1; stroke-dasharray: none; stroke-linecap: butt; stroke-linejoin: miter; stroke-miterlimit: 10; fill: rgb(0,0,0); fill-rule: nonzero; opacity: 1;" transform=" matrix(0.7024 -0.7117 0.7117 0.7024 -12.4902 29.5292) "/>
	<rect x="19.61" y="59.58" rx="0" ry="0" width="20.08" height="2" style="stroke: none; stroke-width: 1; stroke-dasharray: none; stroke-linecap: butt; stroke-linejoin: miter; stroke-miterlimit: 10; fill: rgb(0,0,0); fill-rule: nonzero; opacity: 1;" transform=" matrix(0.7117 -0.7025 0.7025 0.7117 -34.0062 38.2874) "/>
	<rect x="24.13" y="76.44" rx="0" ry="0" width="41.74" height="2" style="stroke: none; stroke-width: 1; stroke-dasharray: none; stroke-linecap: butt; stroke-linejoin: miter; stroke-miterlimit: 10; fill: rgb(0,0,0); fill-rule: nonzero; opacity: 1;" transform=" matrix(1 0 0 1 0 0) "/>
	<rect x="76.44" y="27.2" rx="0" ry="0" width="2" height="35.6" style="stroke: none; stroke-width: 1; stroke-dasharray: none; stroke-linecap: butt; stroke-linejoin: miter; stroke-miterlimit: 10; fill: rgb(0,0,0); fill-rule: nonzero; opacity: 1;" transform=" matrix(1 0 0 1 0 0) "/>
	<rect x="24.13" y="11.56" rx="0" ry="0" width="41.74" height="2" style="stroke: none; stroke-width: 1; stroke-dasharray: none; stroke-linecap: butt; stroke-linejoin: miter; stroke-miterlimit: 10; fill: rgb(0,0,0); fill-rule: nonzero; opacity: 1;" transform=" matrix(1 0 0 1 0 0) "/>
	<rect x="11.56" y="27.2" rx="0" ry="0" width="2" height="35.6" style="stroke: none; stroke-width: 1; stroke-dasharray: none; stroke-linecap: butt; stroke-linejoin: miter; stroke-miterlimit: 10; fill: rgb(0,0,0); fill-rule: nonzero; opacity: 1;" transform=" matrix(1 0 0 1 0 0) "/>
</g>
</g>
</svg>