<?xml version="1.0" encoding="utf-8"?>
<!-- Svg Vector Icons : http://www.onlinewebfonts.com/icon -->
<!DOCTYPE svg PUBLIC "-//W3C//DTD SVG 1.1//EN" "http://www.w3.org/Graphics/SVG/1.1/DTD/svg11.dtd">
<svg version="1.1" xmlns="http://www.w3.org/2000/svg" xmlns:xlink="http://www.w3.org/1999/xlink" x="0px" y="0px" viewBox="0 0 1000 1000" enable-background="new 0 0 1000 1000" xml:space="preserve">
<metadata> Svg Vector Icons : http://www.onlinewebfonts.com/icon </metadata>
<g><g transform="translate(0.000000,511.000000) scale(0.100000,-0.100000)"><path d="M710,3756.7c-216.8-76.7-402.9-251.3-519.9-489.2l-80.6-161.1L103.8,73.5L100-2959.3l59.5-122.8c78.7-159.2,243.6-320.4,412.4-406.7l132.4-65.2l4531-5.8l4533-3.8l61.4,55.6l63.3,55.6l5.8,2727.8c3.8,2399.8,0,2733.6-24.9,2787.3c-61.4,128.5,337.6,117-4603.9,128.5c-4262.5,9.6-4492.7,11.5-4552.1,44.1c-80.6,44.1-168.8,168.8-205.3,287.7c-36.4,122.8-36.4,400.9-1.9,519.9c42.2,138.1,117,234,228.3,289.7l97.8,48h4446.6c4901.3,0,4525.3-9.6,4592.4,117c42.2,82.5,21.1,174.6-51.8,236l-59.5,49.9H5273.7C1627,3781.6,767.6,3777.8,710,3756.7z M5118.3,1773.2l4362.2-3.8v-2465v-2465H5139.4H798.3l-101.7,49.9c-65.2,32.6-118.9,78.7-151.5,128.5l-51.8,78.7l-5.8,2411.3L483.7,1919l136.2-69.1l138.1-71L5118.3,1773.2z"/><path d="M4679,1280.2c-640.7-120.8-1183.6-531.4-1475.2-1112.6c-255.1-504.5-274.3-1099.2-53.7-1626.7c230.2-552.5,780.8-1034,1352.4-1181.7c1064.7-276.2,2144.7,374.1,2451.6,1471.4c34.5,124.7,40.3,199.5,40.3,473.8c0,299.2-5.8,341.4-53.7,498.8c-174.6,585.1-564,1047.4-1095.4,1306.4C5496.2,1278.3,5032,1347.3,4679,1280.2z M5181.6,886.9c857.5-90.2,1465.6-811.4,1413.8-1680.4c-40.3-705.9-479.6-1256.5-1152.9-1450.3c-222.5-63.3-659.9-63.3-882.4,0C3902.1-2053.8,3459-1511,3407.2-826.1c-36.4,479.6,124.7,920.8,452.7,1254.6c293.5,297.3,623.5,437.4,1112.6,475.7C4987.9,904.2,5081.9,896.5,5181.6,886.9z"/><path d="M4730.8,668.2c-82.5-36.4-122.8-101.7-122.8-197.6v-82.5h-90.2c-214.8,0-324.2-84.4-305-235.9c9.6-84.4,48-134.3,128.5-166.9l55.6-23v-669.5c0-600.4-3.8-669.5-30.7-669.5c-17.3,0-59.5-28.8-95.9-65.2c-74.8-74.8-86.3-153.5-32.6-243.6c42.2-71,65.2-80.6,226.4-92.1l134.3-11.5l5.8-76.7c5.8-99.8,38.4-159.2,103.6-193.7c90.2-46,165-34.6,237.9,38.4c55.6,55.6,65.2,78.7,65.2,153.5v88.2H5218c168.8,0,224.5,7.7,312.7,44.1c142,59.5,230.2,130.4,312.7,249.4c170.7,251.3,159.2,550.6-28.8,784.6l-55.6,71l69.1,126.6c59.5,107.4,71,145.8,71,247.5c0,358.7-360.6,642.6-815.3,644.5c-71,0-72.9,1.9-72.9,67.1c0,97.8-49.9,180.3-124.7,212.9C4807.5,700.8,4805.6,700.8,4730.8,668.2z M5335.1-53.1c109.3-30.7,155.4-88.2,155.4-195.7c0-74.8-9.6-103.6-47.9-140c-46.1-46-53.7-48-345.3-48h-297.3v201.4v201.4h235.9C5164.3-33.9,5298.6-41.6,5335.1-53.1z M5488.5-912.5c97.8-97.8,94-310.8-9.6-408.6c-47.9-44.1-61.4-46.1-364.5-51.8l-314.6-7.7v260.9v260.9h318.4h318.4L5488.5-912.5z"/><path d="M1022.7,2976c-170.7-23-234-199.5-118.9-328l55.6-63.3l4387.2-5.8c4834.1-3.8,4462-13.4,4529.1,113.2c38.4,76.7,23,170.7-44.1,236c-38.4,38.4-69,49.9-138.1,49.9C8916.5,2987.5,1084.1,2983.6,1022.7,2976z"/></g></g>
</svg>