<?xml version="1.0" encoding="utf-8"?>
<!-- Generator: Adobe Illustrator 16.0.3, SVG Export Plug-In . SVG Version: 6.00 Build 0)  -->
<!DOCTYPE svg PUBLIC "-//W3C//DTD SVG 1.0//EN" "http://www.w3.org/TR/2001/REC-SVG-20010904/DTD/svg10.dtd">
<svg version="1.0" id="Capa_1" xmlns="http://www.w3.org/2000/svg" xmlns:xlink="http://www.w3.org/1999/xlink" x="0px" y="0px"
	 width="268.5px" height="268.5px" viewBox="0 0 268.5 268.5" enable-background="new 0 0 268.5 268.5" xml:space="preserve">
<g>
	<defs>
		<rect id="SVGID_1_" x="-115" y="-115" width="500" height="500"/>
	</defs>
	<clipPath id="SVGID_2_">
		<use xlink:href="#SVGID_1_"  overflow="visible"/>
	</clipPath>
	<path clip-path="url(#SVGID_2_)" fill="#a3a3a3" d="M218.617,173.334c0.003,4.433,1.327,5.788,5.658,5.796
		c4.856,0.007,9.715,0.063,14.569-0.032c1.642-0.032,2.57,0.37,3.41,1.95c2.956,5.558,9.063,8.111,14.884,6.496
		c6.06-1.682,9.883-6.706,9.856-12.957c-0.025-6.133-4.043-11.213-10.109-12.778c-5.684-1.469-11.633,1.214-14.716,6.535
		c-0.447,0.772-1.262,1.852-1.944,1.881c-4.181,0.174-8.374,0.087-12.818,0.087v-2.947c0-7.624,0.017-15.248-0.009-22.872
		c-0.012-3.48-1.554-5.007-5.035-5.031c-4.1-0.027-8.199-0.006-12.405-0.006v-8.826h8.079c9.37,0,9.37,0,9.37-9.248v-10.196V99.764
		c4.142,0,7.973,0.08,11.799-0.039c1.513-0.047,2.23,0.5,2.935,1.802c3.022,5.584,9.052,8.247,14.822,6.711
		c6.083-1.619,10.022-6.657,10.032-12.832c0.01-6.212-3.874-11.256-9.935-12.9c-5.818-1.578-11.867,1.022-14.854,6.594
		c-0.767,1.432-1.594,1.917-3.166,1.887c-5.038-0.095-10.079-0.047-15.119-0.031c-3.84,0.013-5.275,1.466-5.305,5.317
		c-0.009,1.194-0.002,2.388-0.002,3.582v21.826h-9.897c-2.467-13.005-7.968-24.589-16.558-35.145c3.204,0,5.767,0.027,8.33-0.007
		c3.303-0.043,4.893-1.595,4.912-4.88c0.034-6.338,0.01-12.676,0.011-19.014v-6.963c11.329,0,22.311,0.039,33.292-0.041
		c1.758-0.012,2.724,0.44,3.603,2.08c2.893,5.393,9.01,7.952,14.7,6.418c6.077-1.637,9.986-6.671,9.987-12.863
		c0.001-6.197-3.909-11.24-9.979-12.868c-5.706-1.531-11.819,1.022-14.707,6.406c-0.873,1.628-1.816,2.109-3.59,2.097
		c-12.187-0.079-24.375-0.047-36.563-0.039c-4.169,0.003-5.523,1.394-5.535,5.639c-0.006,2.481-0.001,4.961-0.001,7.441v17.782
		c-3.938,0-7.588,0.107-11.225-0.058c-1.256-0.058-2.705-0.504-3.684-1.266c-7.146-5.574-14.935-9.919-23.566-12.677
		c-3.26-1.041-6.595-1.848-9.761-2.725v-9.736c3.71,0,7.266,0.001,10.82,0c5.563-0.001,6.616-1.033,6.617-6.496
		c0.001-4.501,0.073-9.003-0.036-13.502c-0.044-1.835,0.418-2.864,2.184-3.826c6.045-3.29,8.331-10.63,5.546-16.868
		c-2.777-6.222-9.847-9.407-16.26-7.173c-5.114,1.78-8.253,5.475-8.932,10.844c-0.724,5.721,1.615,10.164,6.485,13.286
		c0.836,0.536,2.078,1.34,2.113,2.069c0.203,4.19,0.1,8.394,0.1,12.484c-0.421,0.184-0.578,0.314-0.738,0.315
		c-3.573,0.027-7.146,0.046-10.719,0.053c-4.948,0.011-6.127,1.187-6.13,6.151c-0.002,3.811-0.001,7.622-0.001,11.343h-8.804
		c0-4.087,0.008-8.018-0.002-11.949c-0.011-4.162-1.408-5.533-5.637-5.541c-3.91-0.008-7.82-0.002-11.956-0.002
		c0-4.049,0.091-7.798-0.041-11.539c-0.06-1.704,0.515-2.553,2.021-3.371c5.397-2.932,7.98-9.009,6.482-14.706
		c-1.601-6.089-6.64-10.054-12.793-10.067c-6.216-0.012-11.233,3.856-12.883,9.937c-1.582,5.826,1.006,11.886,6.563,14.899
		c1.414,0.767,1.93,1.582,1.896,3.17c-0.102,4.774-0.038,9.552-0.036,14.329c0.002,4.968,1.184,6.157,6.122,6.16
		c3.801,0.002,7.601,0,11.367,0v9.778c-0.444,0.147-0.782,0.297-1.137,0.37c-12.223,2.531-23.212,7.669-32.905,15.576
		c-0.46,0.376-1.125,0.693-1.7,0.702c-4.096,0.059-8.194,0.031-12.546,0.031c0-1.163,0-2.058,0-2.952
		c0-7.44,0.006-14.88-0.002-22.321c-0.005-4.203-1.385-5.582-5.593-5.584c-12.096-0.007-24.193-0.024-36.289,0.02
		c-1.758,0.007-2.888-0.251-3.858-2.117c-2.796-5.384-9.014-7.893-14.711-6.347c-5.971,1.621-9.883,6.601-9.921,12.63
		c-0.04,6.283,3.736,11.307,9.779,13.008c5.687,1.602,11.965-0.843,14.795-6.159c1.011-1.896,2.126-2.282,4.048-2.265
		c9.988,0.085,19.977,0.04,29.965,0.04h2.996v21.624c0,9.204,0.035,9.24,9.098,9.241h3.402c-3.357,5.676-7.045,10.964-9.734,16.721
		c-2.726,5.838-4.466,12.138-6.695,18.396h-9.274c0-8.503,0.006-16.843-0.003-25.183c-0.005-4.06-1.416-5.504-5.386-5.515
		c-4.856-0.014-9.714-0.061-14.57,0.026c-1.805,0.032-2.848-0.381-3.814-2.188c-3.237-6.052-10.602-8.342-16.825-5.555
		C4.733,85.98,1.572,92.88,3.634,99.27c1.708,5.293,5.43,8.523,10.891,9.211c5.807,0.731,10.319-1.649,13.368-6.749
		c0.458-0.768,1.267-1.844,1.951-1.873c4.182-0.174,8.375-0.087,12.817-0.087v2.95c0.001,7.624-0.017,15.248,0.009,22.872
		c0.011,3.481,1.551,5.004,5.037,5.028c4.1,0.028,8.2,0.007,12.401,0.007v8.825c-2.89,0-5.622,0-8.354,0
		c-9.022,0-9.093,0.07-9.092,8.966v9.369v12.53c-3.861,0-7.419-0.1-10.968,0.039c-1.931,0.076-3.037-0.374-4.045-2.27
		c-2.779-5.228-8.976-7.723-14.537-6.256c-6.075,1.604-10.028,6.652-10.039,12.823c-0.011,6.229,3.846,11.251,9.916,12.912
		c5.808,1.589,11.844-1,14.861-6.578c0.768-1.42,1.588-1.925,3.167-1.896c5.038,0.099,10.079,0.05,15.12,0.032
		c3.832-0.012,5.284-1.479,5.314-5.315c0.009-1.193,0.002-2.389,0.002-3.582v-21.827h9.904c2.429,13.014,7.988,24.567,16.512,35.145
		c-1.906,0-3.186,0-4.466,0c-1.283,0-2.566-0.019-3.849,0.004c-3.304,0.061-4.872,1.591-4.888,4.899
		c-0.032,6.889-0.01,13.778-0.01,20.667v5.022c-0.529,0.147-0.699,0.237-0.869,0.237c-10.813,0.017-21.626-0.016-32.439,0.076
		c-1.77,0.016-2.719-0.462-3.592-2.094c-2.882-5.381-8.999-7.937-14.706-6.408c-6.073,1.625-9.978,6.661-9.977,12.865
		c0,6.191,3.91,11.23,9.981,12.864c5.695,1.531,11.799-1.021,14.702-6.416c0.88-1.637,1.845-2.092,3.604-2.08
		c12.004,0.076,24.009,0.042,36.014,0.039c4.89-0.001,6.071-1.212,6.073-6.214c0.001-7.257-0.004-14.514,0.006-21.77
		c0.001-0.89,0.077-1.779,0.128-2.881c3.822,0,7.473-0.107,11.112,0.059c1.255,0.059,2.581,0.617,3.699,1.256
		c6.334,3.621,12.438,7.699,18.975,10.894c4.449,2.174,9.479,3.155,14.383,4.712v9.543c-4.255,0-8.27-0.016-12.285,0.004
		c-3.686,0.018-5.196,1.495-5.213,5.128c-0.024,5.051-0.068,10.105,0.029,15.155c0.031,1.652-0.39,2.573-1.959,3.409
		c-5.42,2.886-8.031,8.968-6.565,14.665c1.565,6.083,6.628,10.107,12.748,10.133c6.313,0.025,11.42-3.953,13.017-10.142
		c1.47-5.699-1.197-11.639-6.526-14.745c-0.768-0.448-1.837-1.269-1.865-1.953c-0.173-4.191-0.087-8.394-0.087-12.844
		c4.37,0,8.47,0.023,12.571-0.007c3.458-0.025,4.987-1.571,5.01-5.061c0.028-4.108,0.007-8.216,0.007-12.416h8.804v8.932
		c0,8.246,0.302,8.552,8.41,8.552h9.186c0,3.976-0.082,7.635,0.036,11.285c0.056,1.737-0.374,2.746-2.037,3.635
		c-5.393,2.883-7.965,9.011-6.459,14.712c1.608,6.088,6.646,10.043,12.806,10.052c6.2,0.009,11.214-3.872,12.868-9.962
		c1.581-5.816-1.015-11.88-6.581-14.888c-1.43-0.771-1.904-1.607-1.876-3.178c0.092-5.142,0.056-10.288,0.027-15.431
		c-0.021-3.48-1.556-5.006-5.037-5.03c-4.098-0.028-8.195-0.006-12.419-0.006v-9.79c0.435-0.144,0.774-0.296,1.131-0.369
		c12.225-2.522,23.21-7.666,32.899-15.578c0.459-0.374,1.128-0.681,1.705-0.689c4.095-0.059,8.19-0.031,12.526-0.031
		c0,8.621-0.006,16.957,0.003,25.293c0.004,4.188,1.389,5.562,5.612,5.565c12.188,0.006,24.376,0.027,36.563-0.029
		c1.614-0.007,2.588,0.299,3.438,1.905c2.888,5.47,8.923,8.101,14.601,6.646c6.078-1.555,10.123-6.629,10.158-12.743
		c0.037-6.355-3.896-11.469-10.065-13.082c-5.691-1.488-11.759,1.108-14.66,6.521c-0.819,1.53-1.688,2.021-3.368,2.01
		c-10.354-0.078-20.71-0.036-31.065-0.046c-0.781-0.001-1.563-0.104-2.424-0.164c0-8.715,0.015-17.162-0.007-25.609
		c-0.009-3.503-1.54-5.041-4.989-5.079c-2.596-0.027-5.194-0.006-7.524-0.006c3.363-5.679,7.056-10.964,9.745-16.721
		c2.729-5.837,4.466-12.139,6.695-18.396h9.284C218.616,156.837,218.612,165.085,218.617,173.334 M253.763,170.348
		c2.256-0.033,4.425,2.136,4.406,4.405c-0.02,2.281-2.208,4.414-4.463,4.351c-2.176-0.063-4.209-2.095-4.271-4.269
		C249.373,172.564,251.477,170.382,253.763,170.348 M253.72,90.98c2.254-0.061,4.439,2.081,4.449,4.362
		c0.009,2.273-2.161,4.431-4.419,4.394c-2.169-0.035-4.227-2.049-4.314-4.224C249.344,93.249,251.43,91.043,253.72,90.98
		 M253.998,46.887c2.171,0.115,4.164,2.202,4.171,4.367c0.006,2.273-2.166,4.429-4.424,4.389c-2.28-0.039-4.395-2.25-4.308-4.503
		C249.527,48.851,251.76,46.769,253.998,46.887 M161.676,11.617c2.173,0.147,4.144,2.26,4.117,4.416
		c-0.028,2.283-2.223,4.409-4.477,4.336c-2.29-0.075-4.374-2.307-4.254-4.557C157.186,13.516,159.44,11.466,161.676,11.617
		 M108.544,20.369c-2.177-0.062-4.209-2.093-4.27-4.268c-0.064-2.271,2.041-4.453,4.327-4.488c2.256-0.033,4.424,2.135,4.406,4.406
		C112.988,18.3,110.799,20.433,108.544,20.369 M16.094,55.641c-2.27-0.101-4.347-2.383-4.199-4.614
		c0.144-2.17,2.261-4.17,4.394-4.151c2.272,0.021,4.408,2.227,4.338,4.48C20.557,53.641,18.335,55.741,16.094,55.641 M16.285,99.733
		c-2.252,0.025-4.421-2.159-4.393-4.422c0.026-2.161,2.04-4.24,4.206-4.342c2.237-0.105,4.478,2.015,4.532,4.288
		C20.683,97.52,18.56,99.708,16.285,99.733 M16.245,179.101c-2.26-0.002-4.406-2.202-4.353-4.462
		c0.05-2.167,2.083-4.227,4.246-4.303c2.248-0.079,4.463,2.057,4.491,4.328C20.657,176.935,18.514,179.103,16.245,179.101
		 M16.173,223.193c-2.27-0.049-4.381-2.285-4.282-4.535c0.096-2.172,2.165-4.198,4.319-4.229c2.258-0.033,4.438,2.138,4.418,4.399
		C20.609,221.111,18.433,223.242,16.173,223.193 M108.705,258.467c-2.249,0.054-4.436-2.104-4.437-4.378
		c-0.002-2.151,1.996-4.257,4.162-4.386c2.219-0.132,4.494,1.979,4.576,4.244C113.087,256.197,110.979,258.413,108.705,258.467
		 M161.346,249.703c2.254-0.049,4.447,2.109,4.445,4.374c-0.003,2.278-2.166,4.422-4.43,4.39c-2.269-0.031-4.39-2.251-4.309-4.508
		C157.132,251.788,159.187,249.75,161.346,249.703 M253.615,214.44c2.233-0.128,4.476,1.968,4.554,4.257
		c0.076,2.259-2.041,4.467-4.315,4.5c-2.145,0.031-4.261-1.945-4.412-4.121C249.284,216.838,251.326,214.571,253.615,214.44
		 M134.72,201.182c-36.127-0.127-65.761-30.049-65.67-66.306C69.141,98.49,98.992,68.773,135.323,68.9
		c36.143,0.126,65.9,30.15,65.69,66.277C200.801,171.663,171.025,201.309,134.72,201.182"/>
	<path clip-path="url(#SVGID_2_)" fill="#a3a3a3" d="M135.801,77.726c-32.068-0.068-57.892,25.158-57.947,56.605
		c-0.057,32.347,25.168,57.977,57.107,58.024c31.687,0.047,57.219-25.508,57.254-57.303
		C192.25,103.657,166.796,77.792,135.801,77.726 M170.86,130.623c4.012,0.027,8.023,0.006,12.278,0.006v8.826
		c-4.018,0-7.761-0.015-11.504,0.004c-3.796,0.018-5.234,1.495-5.253,5.365c-0.013,2.571-0.049,5.145,0.012,7.715
		c0.066,2.793,1.836,4.562,4.418,4.541c2.573-0.021,4.262-1.795,4.351-4.619c0.039-1.274,0.007-2.55,0.007-4.194h3.058h2.725
		c0.264,13.511-20.53,32.054-38.653,34.691c-25.124,3.655-45.977-12.551-51.944-30.282c4.559,0,8.86,0.017,13.16-0.006
		c3.26-0.017,5.119-1.641,5.119-4.403c-0.001-2.765-1.855-4.382-5.12-4.396c-4.673-0.022-9.347-0.071-14.018,0.027
		c-1.676,0.035-2.274-0.582-2.344-2.192c-0.091-2.097-0.366-4.185-0.598-6.666c2.65,0,5.09,0.004,7.529-0.001
		c4.399-0.01,5.74-1.338,5.758-5.7c0.004-0.91,0-1.82,0-3.12c1.551,0,2.98,0.051,4.404-0.011c2.616-0.114,4.344-1.841,4.389-4.301
		c0.047-2.592-1.712-4.413-4.476-4.481c-2.747-0.067-5.497-0.045-8.246-0.008c-3.286,0.043-4.8,1.6-4.858,4.929
		c-0.021,1.18-0.003,2.361-0.003,3.709h-3.048c-1.144-15.712,21.079-36.724,40.405-39.075c28.822-3.505,49.21,17.564,52.768,34.838
		c-3.504,0-6.958-0.024-10.412,0.007c-3.07,0.028-4.882,1.641-4.928,4.308C165.786,128.934,167.621,130.601,170.86,130.623"/>
</g>
</svg>
