<?xml version="1.0" standalone="no"?>
<!DOCTYPE svg PUBLIC "-//W3C//DTD SVG 20010904//EN"
 "http://www.w3.org/TR/2001/REC-SVG-20010904/DTD/svg10.dtd">
<svg version="1.0" xmlns="http://www.w3.org/2000/svg"
 width="512.000000pt" height="512.000000pt" viewBox="0 0 512.000000 512.000000"
 preserveAspectRatio="xMidYMid meet">

<g transform="translate(0.000000,512.000000) scale(0.100000,-0.100000)"
fill="#72a36f" stroke="none">
<path d="M1282 5110 c-326 -42 -605 -175 -840 -404 -217 -210 -348 -451 -413
-756 -32 -150 -32 -409 0 -560 124 -586 551 -1016 1134 -1142 147 -31 427 -31
574 0 137 30 257 73 381 137 388 202 660 561 754 998 31 147 31 427 0 574
-145 671 -703 1139 -1382 1158 -74 2 -168 0 -208 -5z m313 -171 c303 -36 562
-164 773 -383 486 -504 480 -1296 -14 -1790 -490 -491 -1281 -500 -1783 -21
-472 450 -533 1168 -143 1692 109 145 289 297 449 377 218 109 476 154 718
125z"/>
<path d="M1290 4765 c-238 -34 -444 -138 -621 -314 -183 -184 -282 -385 -316
-646 -77 -591 332 -1133 930 -1230 354 -57 720 69 972 336 158 167 252 359
290 592 99 612 -348 1197 -968 1266 -118 13 -165 13 -287 -4z m275 -166 c118
-14 265 -64 367 -125 116 -68 256 -210 326 -329 120 -204 159 -456 106 -684
-107 -468 -557 -784 -1029 -722 -390 51 -702 333 -797 718 -30 123 -30 304 0
426 94 384 407 666 794 716 92 12 133 12 233 0z"/>
<path d="M1370 4351 c0 -93 -4 -101 -49 -101 -34 0 -157 -69 -200 -111 -179
-180 -90 -447 177 -529 31 -10 95 -21 142 -25 105 -9 176 -35 218 -78 85 -87
45 -194 -90 -243 -54 -20 -170 -22 -223 -4 -91 30 -132 75 -155 168 -9 34 -18
46 -45 59 -29 14 -38 14 -66 3 -43 -18 -60 -61 -49 -122 25 -131 140 -240 293
-279 l47 -11 0 -89 0 -89 85 0 85 0 0 89 0 89 63 19 c261 80 353 337 186 518
-80 86 -158 119 -330 140 -131 15 -178 34 -227 90 -25 27 -32 45 -32 76 0 101
106 171 259 171 62 -1 84 -6 137 -32 65 -32 96 -68 109 -125 13 -59 17 -65 45
-80 41 -21 65 -19 97 9 24 21 28 31 27 75 -4 134 -129 266 -291 310 l-42 12
-3 87 -3 87 -82 3 -83 3 0 -90z"/>
<path d="M3162 4397 c-111 -111 -202 -207 -202 -212 0 -6 93 -104 208 -218
l207 -207 60 60 60 60 -110 111 -110 111 250 -5 c213 -4 262 -8 330 -26 109
-29 196 -72 282 -137 94 -72 164 -158 218 -269 70 -142 76 -182 82 -492 l5
-273 85 0 85 0 -5 283 c-5 329 -15 386 -97 553 -145 298 -419 490 -750 524
-56 5 -186 10 -288 10 l-187 0 105 105 105 105 -60 60 c-33 33 -62 60 -65 60
-3 0 -96 -91 -208 -203z"/>
<path d="M3490 2890 c-325 -45 -616 -188 -844 -416 -116 -116 -203 -238 -276
-389 -113 -233 -144 -369 -144 -635 0 -206 17 -311 75 -477 148 -418 481 -750
894 -891 169 -58 280 -75 475 -75 195 0 306 17 475 75 412 141 752 481 893
893 58 169 75 280 75 475 0 195 -17 306 -75 475 -166 485 -600 859 -1105 951
-104 19 -351 27 -443 14z m360 -175 c275 -41 508 -156 706 -347 613 -592 489
-1594 -251 -2026 -220 -129 -521 -192 -770 -162 -313 37 -569 162 -783 384
-383 397 -470 980 -219 1470 247 484 785 762 1317 681z"/>
<path d="M3515 2549 c-231 -33 -448 -141 -618 -308 -453 -441 -446 -1162 14
-1596 376 -355 937 -401 1379 -114 84 55 244 215 299 299 100 154 155 306 179
493 14 116 14 138 0 255 -47 378 -268 695 -606 866 -181 92 -443 134 -647 105z
m282 -170 c116 -16 247 -62 348 -121 119 -70 261 -210 329 -326 291 -490 82
-1123 -444 -1344 -273 -115 -586 -94 -842 58 -116 68 -256 210 -326 329 -221
376 -155 852 160 1151 158 150 310 222 548 258 53 7 152 6 227 -5z"/>
<path d="M3416 2189 c-3 -17 -6 -56 -6 -85 l0 -54 -125 0 -125 0 0 -85 0 -85
85 0 85 0 -2 -427 -3 -428 -82 -3 -83 -3 0 -84 0 -85 125 0 125 0 0 -54 c0
-29 3 -68 6 -85 l7 -32 81 3 81 3 -1 83 -1 82 43 0 44 0 0 -85 0 -85 85 0 85
0 0 84 0 83 75 6 c41 4 90 13 109 21 53 22 112 81 136 138 20 46 21 64 18 197
-3 139 -4 148 -31 194 l-28 47 28 48 c27 45 28 54 31 193 3 133 2 151 -18 197
-44 101 -144 162 -267 162 l-53 0 0 85 0 85 -85 0 -85 0 0 -85 0 -85 -44 0
-43 0 1 83 1 82 -81 3 -81 3 -7 -32z m570 -342 c22 -26 24 -36 24 -143 0 -109
-1 -116 -25 -139 l-24 -25 -231 0 -230 0 0 171 0 170 231 -3 231 -3 24 -28z
m-31 -491 c18 -8 38 -23 44 -34 6 -12 11 -69 11 -127 0 -58 -5 -115 -11 -127
-22 -41 -65 -48 -289 -48 l-210 0 0 175 0 175 210 0 c159 0 219 -3 245 -14z"/>
<path d="M513 1938 c5 -330 15 -387 97 -554 145 -298 419 -490 750 -524 56 -5
168 -10 248 -10 l147 0 -108 -108 -107 -107 60 -60 60 -60 213 213 212 212
-212 212 -213 213 -55 -55 c-30 -30 -55 -59 -55 -65 0 -6 45 -55 100 -110 55
-55 100 -104 100 -109 0 -5 -83 -7 -202 -3 -224 6 -306 21 -428 78 -87 40
-197 126 -260 202 -60 73 -133 215 -156 307 -12 49 -17 132 -21 338 l-5 272
-85 0 -85 0 5 -282z"/>
</g>
</svg>
