<svg width="261" height="251" viewBox="0 0 261 251" fill="none" xmlns="http://www.w3.org/2000/svg">
<path d="M160.27 196.67C155.98 198.51 151.52 199.88 146.92 200.86L184.84 238.78C188.81 237.06 192.71 235.21 196.47 233.13C199.54 231.43 202.49 229.57 205.39 227.65L169.57 191.83C166.6 193.61 163.54 195.27 160.27 196.67Z" fill="#AC8A44"/>
<path d="M61.35 154.01L4.39999 97.06C2.16999 106.19 0.989983 115.62 0.989983 125.42C0.989983 135.33 0.239995 147.37 5.44 156.41C9 162.59 16.18 167.9 21.24 172.96C35.04 186.76 48.85 200.57 62.65 214.37C69.27 220.99 75.88 227.6 82.5 234.22C88.27 239.99 92.27 244.87 100.51 246.68C110.53 248.87 120.64 250.09 130.9 250.09C139.2 250.09 147.3 249.32 155.2 247.87L105.26 197.93L61.35 154.01Z" fill="#AC8A44"/>
<path d="M62.1 95.09C63.15 92.57 64.32 90.16 65.57 87.82L27.56 49.8C24.38 53.8 21.43 57.99 18.75 62.38C17.44 64.53 16.21 66.73 15.03 68.95L57.48 111.4C58.44 105.74 59.94 100.29 62.1 95.09Z" fill="#AC8A44"/>
<path d="M199.87 156.11C197.21 162.49 193.86 168.24 189.91 173.46L226.48 210.03C232.85 203.43 238.46 196.26 243.23 188.46C248.88 179.19 253.25 169.26 256.34 158.65C257.39 155.03 258.2 151.34 258.9 147.61H202.76C201.95 150.5 201.02 153.35 199.87 156.11Z" fill="#AC8A44"/>
<path d="M160.27 54.53C169.36 58.43 177.26 63.82 183.96 70.7C190.66 77.58 195.96 85.71 199.87 95.09C203.12 102.91 204.94 111.31 205.48 120.23H260.8C260.58 114.87 260.62 109.47 259.66 104.18C258.5 97.74 255.85 94.29 251.36 89.8C239.8 78.24 228.24 66.68 216.68 55.12C206.95 45.39 197.23 35.67 187.5 25.94C183.69 22.13 179.88 18.32 176.07 14.51C170.64 9.07999 167.29 5.59 159.61 3.94C150.18 1.92 140.54 0.940002 130.9 0.940002C118.89 0.940002 107.35 2.4 96.28 5.31C95.2 5.59 94.17 5.94 93.11 6.25L135.76 48.9C144.42 49.42 152.61 51.24 160.27 54.53Z" fill="#AC8A44"/>
<path d="M101.88 54.53C102.07 54.45 102.27 54.39 102.46 54.31L65.72 17.57C65.57 17.65 65.41 17.73 65.26 17.81C58.71 21.5 52.6 25.72 46.86 30.38L82.82 66.34C88.47 61.52 94.81 57.57 101.88 54.53Z" fill="#AC8A44"/>
<path d="M146.56 144.61C144.6 146.65 142.28 148.23 139.62 149.35C138.59 149.78 137.5 150.06 136.4 150.32C134.66 150.74 132.87 151.02 130.96 151.02C129.09 151.02 127.31 150.74 125.59 150.32C124.5 150.06 123.42 149.78 122.38 149.35C119.71 148.23 117.37 146.64 115.36 144.57C114.61 143.8 113.95 142.96 113.32 142.09H86.01C86.36 143.13 86.71 144.17 87.14 145.19C87.9 146.99 88.8 148.68 89.75 150.33C91.71 153.69 94.04 156.77 96.82 159.49C100.96 163.55 105.91 166.76 111.69 169.13C112.15 169.32 112.64 169.45 113.11 169.63C118.5 171.64 124.33 172.69 130.65 172.69C136.05 172.69 141.08 171.98 145.77 170.6C147.19 170.18 148.58 169.72 149.93 169.17C155.76 166.83 160.75 163.62 164.92 159.53C166.37 158.11 167.66 156.58 168.89 154.99C170.03 153.51 171.08 151.96 172.03 150.33C172.99 148.68 173.89 146.99 174.65 145.19C176.96 139.72 178.12 133.88 178.12 127.67C178.12 126.07 178.04 124.5 177.88 122.95C177.76 121.75 177.57 120.57 177.36 119.39C176.78 116.2 175.9 113.12 174.65 110.15C172.33 104.68 169.1 99.9 164.93 95.82C160.76 91.74 155.78 88.51 149.98 86.14C144.18 83.77 137.8 82.59 130.83 82.59C129.96 82.59 129.13 82.66 128.29 82.7C122.32 82.96 116.77 84.07 111.72 86.14C108.97 87.27 106.42 88.6 104.03 90.12C101.41 91.79 98.99 93.68 96.81 95.82C92.64 99.9 89.42 104.68 87.13 110.15C86.95 110.58 86.82 111.03 86.66 111.46C86.36 112.26 86.09 113.06 85.83 113.87H112.85C113.6 112.73 114.43 111.68 115.36 110.72C116.93 109.11 118.77 107.87 120.76 106.84C121.29 106.56 121.78 106.22 122.35 105.98C125.02 104.86 127.88 104.31 130.93 104.31C134.04 104.31 136.92 104.87 139.59 105.98C142.26 107.1 144.59 108.68 146.57 110.72C148.56 112.76 150.12 115.21 151.27 118.07C151.88 119.6 152.3 121.24 152.59 122.95C152.84 124.43 152.99 125.97 152.99 127.59C152.99 131.13 152.42 134.34 151.28 137.23C150.07 140.1 148.52 142.57 146.56 144.61Z" fill="#AC8A44"/>
</svg>
