<svg width="332" height="296" viewBox="0 0 332 296" fill="none" xmlns="http://www.w3.org/2000/svg">
<g clip-path="url(#clip0_3_27)">
<path d="M48.1068 203.766C42.2802 203.766 37.8397 202.148 34.7895 198.907C31.7392 195.665 30.212 191.063 30.212 185.095C30.212 182.128 30.6768 179.485 31.6064 177.156C32.536 174.828 33.8142 172.865 35.4327 171.259C37.0512 169.657 38.9851 168.441 41.2261 167.611C43.4671 166.786 45.899 166.371 48.5177 166.371C50.0366 166.371 51.4144 166.483 52.6552 166.707C53.8961 166.931 54.9834 167.192 55.913 167.483C56.8426 167.777 57.6186 168.076 58.2411 168.388C58.8636 168.699 59.3077 168.939 59.5857 169.11L57.2576 175.625C56.1537 175.04 54.8713 174.538 53.4064 174.127C51.9414 173.712 50.2773 173.504 48.4139 173.504C47.1731 173.504 45.9571 173.712 44.7661 174.127C43.575 174.542 42.5251 175.206 41.6121 176.119C40.6991 177.032 39.9645 178.215 39.4126 179.663C38.8606 181.111 38.5867 182.871 38.5867 184.938C38.5867 186.594 38.7693 188.137 39.1304 189.565C39.4914 190.997 40.0766 192.229 40.89 193.263C41.6992 194.296 42.7616 195.118 44.0689 195.719C45.3803 196.325 46.9656 196.624 48.8289 196.624C49.9992 196.624 51.0533 196.554 51.9829 196.417C52.9125 196.28 53.7425 196.114 54.4646 195.923C55.1867 195.732 55.8258 195.52 56.3778 195.275C56.9297 195.035 57.4277 194.811 57.8759 194.603L60.1003 201.069C58.9632 201.758 57.3613 202.38 55.2905 202.932C53.2279 203.488 50.8292 203.766 48.1068 203.766Z" fill="#AC8A44"/>
<path d="M80.4311 182.663C79.7422 182.489 78.933 182.311 77.9992 182.12C77.0696 181.929 76.0695 181.833 74.9988 181.833C74.5174 181.833 73.9364 181.879 73.2641 181.962C72.5918 182.049 72.0813 182.145 71.7369 182.248V203.04H64.0345V177.285C65.4123 176.804 67.0432 176.347 68.9232 175.916C70.8031 175.484 72.8989 175.268 75.2063 175.268C75.6213 175.268 76.1193 175.293 76.7044 175.347C77.2896 175.401 77.8747 175.467 78.464 175.555C79.0492 175.642 79.6343 175.745 80.2236 175.866C80.8088 175.986 81.3109 176.131 81.7218 176.306L80.4311 182.663Z" fill="#AC8A44"/>
<path d="M93.5659 167.977C93.5659 169.392 93.1094 170.504 92.1964 171.313C91.2834 172.122 90.2044 172.529 88.9636 172.529C87.7227 172.529 86.6437 172.127 85.7307 171.313C84.8177 170.504 84.3612 169.392 84.3612 167.977C84.3612 166.562 84.8177 165.449 85.7307 164.64C86.6437 163.831 87.7227 163.424 88.9636 163.424C90.2044 163.424 91.2834 163.831 92.1964 164.64C93.1094 165.449 93.5659 166.562 93.5659 167.977ZM92.8438 203.04H85.1373V175.837H92.8438V203.04Z" fill="#AC8A44"/>
<path d="M124.649 189.44C124.649 191.544 124.392 193.458 123.873 195.18C123.355 196.906 122.595 198.388 121.599 199.629C120.599 200.87 119.358 201.836 117.877 202.525C116.395 203.214 114.685 203.559 112.755 203.559C111.685 203.559 110.685 203.455 109.755 203.247C108.825 203.04 107.929 202.749 107.066 202.368V212.61H99.3593V176.766C100.048 176.559 100.841 176.364 101.737 176.173C102.634 175.986 103.576 175.82 104.555 175.683C105.539 175.546 106.539 175.434 107.556 175.347C108.572 175.26 109.548 175.218 110.477 175.218C112.718 175.218 114.718 175.555 116.478 176.227C118.238 176.899 119.719 177.849 120.927 179.074C122.134 180.298 123.056 181.788 123.695 183.547C124.33 185.303 124.649 187.266 124.649 189.44ZM116.789 189.644C116.789 187.266 116.254 185.361 115.187 183.929C114.117 182.497 112.531 181.784 110.427 181.784C109.738 181.784 109.099 181.809 108.514 181.863C107.929 181.916 107.443 181.975 107.066 182.045V195.956C107.547 196.267 108.178 196.524 108.954 196.732C109.73 196.939 110.514 197.043 111.307 197.043C114.959 197.043 116.789 194.578 116.789 189.644Z" fill="#AC8A44"/>
<path d="M129.617 169.06L137.323 167.819V175.837H146.582V182.248H137.323V191.818C137.323 193.441 137.61 194.732 138.178 195.699C138.747 196.666 139.892 197.147 141.619 197.147C142.449 197.147 143.3 197.068 144.179 196.915C145.059 196.761 145.86 196.545 146.586 196.267L147.674 202.268C146.744 202.646 145.706 202.974 144.569 203.252C143.432 203.526 142.034 203.667 140.378 203.667C138.274 203.667 136.535 203.38 135.153 202.812C133.775 202.243 132.671 201.451 131.841 200.434C131.016 199.417 130.434 198.184 130.111 196.736C129.783 195.288 129.621 193.686 129.621 191.926V169.06H129.617Z" fill="#AC8A44"/>
<path d="M176.524 189.386C176.524 191.524 176.213 193.483 175.595 195.255C174.972 197.031 174.076 198.55 172.906 199.807C171.735 201.065 170.328 202.04 168.689 202.729C167.05 203.418 165.216 203.762 163.182 203.762C161.182 203.762 159.364 203.418 157.725 202.729C156.086 202.04 154.683 201.065 153.508 199.807C152.334 198.55 151.421 197.031 150.769 195.255C150.114 193.478 149.786 191.524 149.786 189.386C149.786 187.249 150.122 185.299 150.794 183.543C151.467 181.784 152.396 180.286 153.587 179.045C154.778 177.804 156.189 176.841 157.829 176.148C159.468 175.459 161.252 175.115 163.182 175.115C165.149 175.115 166.95 175.459 168.585 176.148C170.225 176.837 171.627 177.804 172.802 179.045C173.972 180.286 174.889 181.784 175.541 183.543C176.197 185.303 176.524 187.249 176.524 189.386ZM168.664 189.386C168.664 187.009 168.191 185.137 167.241 183.776C166.29 182.414 164.938 181.734 163.182 181.734C161.423 181.734 160.061 182.414 159.094 183.776C158.127 185.137 157.646 187.009 157.646 189.386C157.646 191.764 158.127 193.653 159.094 195.051C160.061 196.45 161.423 197.147 163.182 197.147C164.942 197.147 166.295 196.45 167.241 195.051C168.191 193.653 168.664 191.764 168.664 189.386Z" fill="#AC8A44"/>
<path d="M203.728 196.886C204.865 196.886 205.803 196.79 206.545 196.599C207.288 196.412 207.882 196.151 208.33 195.823C208.778 195.495 209.089 195.109 209.26 194.661C209.43 194.213 209.517 193.715 209.517 193.163C209.517 191.993 208.965 191.017 207.861 190.241C206.757 189.465 204.861 188.631 202.171 187.735C200.997 187.32 199.827 186.847 198.656 186.311C197.482 185.776 196.432 185.104 195.502 184.294C194.573 183.485 193.813 182.502 193.228 181.348C192.643 180.194 192.348 178.787 192.348 177.132C192.348 175.476 192.66 173.986 193.278 172.658C193.9 171.33 194.776 170.201 195.917 169.271C197.054 168.342 198.432 167.624 200.055 167.126C201.673 166.628 203.504 166.375 205.537 166.375C207.948 166.375 210.036 166.632 211.795 167.151C213.555 167.67 215.003 168.238 216.14 168.856L213.812 175.218C212.812 174.7 211.7 174.243 210.476 173.849C209.251 173.455 207.778 173.255 206.052 173.255C204.122 173.255 202.732 173.525 201.889 174.056C201.043 174.592 200.623 175.409 200.623 176.513C200.623 177.169 200.777 177.721 201.088 178.169C201.399 178.617 201.839 179.024 202.408 179.385C202.976 179.746 203.632 180.074 204.375 180.369C205.118 180.663 205.935 180.962 206.832 181.273C208.695 181.962 210.314 182.643 211.691 183.315C213.069 183.987 214.219 184.772 215.132 185.668C216.045 186.565 216.725 187.619 217.174 188.822C217.622 190.03 217.846 191.495 217.846 193.217C217.846 196.562 216.672 199.156 214.331 200.998C211.986 202.845 208.45 203.766 203.728 203.766C202.142 203.766 200.711 203.671 199.437 203.484C198.162 203.293 197.034 203.061 196.05 202.787C195.067 202.513 194.224 202.218 193.514 201.907C192.809 201.596 192.211 201.305 191.73 201.027L194.004 194.616C195.071 195.201 196.39 195.728 197.959 196.193C199.532 196.653 201.453 196.886 203.728 196.886Z" fill="#AC8A44"/>
<path d="M248.104 189.44C248.104 191.544 247.846 193.458 247.328 195.18C246.809 196.906 246.049 198.388 245.053 199.629C244.053 200.87 242.812 201.836 241.331 202.525C239.849 203.214 238.139 203.559 236.21 203.559C235.139 203.559 234.139 203.455 233.209 203.247C232.28 203.04 231.383 202.749 230.52 202.368V212.61H222.813V176.766C223.502 176.559 224.295 176.364 225.191 176.173C226.088 175.986 227.03 175.82 228.009 175.683C228.993 175.546 229.993 175.434 231.01 175.347C232.026 175.26 233.002 175.218 233.931 175.218C236.172 175.218 238.173 175.555 239.932 176.227C241.692 176.899 243.173 177.849 244.381 179.074C245.589 180.298 246.51 181.788 247.149 183.547C247.784 185.303 248.104 187.266 248.104 189.44ZM240.243 189.644C240.243 187.266 239.708 185.361 238.642 183.929C237.571 182.497 235.986 181.784 233.882 181.784C233.193 181.784 232.554 181.809 231.968 181.863C231.383 181.916 230.898 181.975 230.52 182.045V195.956C231.001 196.267 231.632 196.524 232.408 196.732C233.184 196.939 233.969 197.043 234.761 197.043C238.413 197.043 240.243 194.578 240.243 189.644Z" fill="#AC8A44"/>
<path d="M278.772 189.386C278.772 191.524 278.461 193.483 277.843 195.255C277.22 197.031 276.324 198.55 275.153 199.807C273.983 201.065 272.576 202.04 270.937 202.729C269.298 203.418 267.463 203.762 265.43 203.762C263.43 203.762 261.612 203.418 259.973 202.729C258.333 202.04 256.931 201.065 255.756 199.807C254.582 198.55 253.669 197.031 253.017 195.255C252.362 193.478 252.034 191.524 252.034 189.386C252.034 187.249 252.37 185.299 253.042 183.543C253.714 181.784 254.644 180.286 255.835 179.045C257.026 177.804 258.437 176.841 260.076 176.148C261.716 175.459 263.5 175.115 265.43 175.115C267.397 175.115 269.198 175.459 270.833 176.148C272.472 176.837 273.875 177.804 275.05 179.045C276.224 180.286 277.137 181.784 277.789 183.543C278.444 185.303 278.772 187.249 278.772 189.386ZM270.912 189.386C270.912 187.009 270.439 185.137 269.489 183.776C268.538 182.414 267.185 181.734 265.43 181.734C263.67 181.734 262.309 182.414 261.342 183.776C260.375 185.137 259.894 187.009 259.894 189.386C259.894 191.764 260.375 193.653 261.342 195.051C262.309 196.45 263.67 197.147 265.43 197.147C267.189 197.147 268.542 196.45 269.489 195.051C270.435 193.653 270.912 191.764 270.912 189.386Z" fill="#AC8A44"/>
<path d="M283.74 169.06L291.446 167.819V175.837H300.705V182.248H291.446V191.818C291.446 193.441 291.733 194.732 292.301 195.699C292.87 196.666 294.015 197.147 295.741 197.147C296.571 197.147 297.422 197.068 298.302 196.915C299.182 196.761 299.983 196.545 300.709 196.267L301.796 202.268C300.867 202.646 299.829 202.974 298.692 203.252C297.555 203.526 296.156 203.667 294.501 203.667C292.397 203.667 290.658 203.38 289.276 202.812C287.898 202.243 286.794 201.451 285.964 200.434C285.138 199.417 284.557 198.184 284.234 196.736C283.906 195.288 283.744 193.686 283.744 191.926V169.06H283.74Z" fill="#AC8A44"/>
<path d="M177.317 128.618C175.537 129.382 173.686 129.95 171.777 130.357L187.514 146.094C189.161 145.38 190.78 144.612 192.34 143.749C193.614 143.043 194.838 142.272 196.042 141.475L181.177 126.609C179.944 127.348 178.674 128.037 177.317 128.618Z" fill="#AC8A44"/>
<path d="M136.265 110.914L112.631 87.2799C111.706 91.0688 111.216 94.9823 111.216 99.0493C111.216 103.162 110.905 108.159 113.063 111.91C114.54 114.475 117.52 116.678 119.62 118.778C125.347 124.505 131.078 130.237 136.805 135.964C139.552 138.711 142.295 141.454 145.043 144.201C147.437 146.596 149.097 148.621 152.517 149.372C156.675 150.281 160.871 150.787 165.129 150.787C168.573 150.787 171.935 150.468 175.213 149.866L154.488 129.141L136.265 110.914Z" fill="#AC8A44"/>
<path d="M136.577 86.4623C137.012 85.4165 137.498 84.4164 138.017 83.4453L122.242 67.667C120.923 69.327 119.698 71.0658 118.586 72.8877C118.043 73.7799 117.532 74.6929 117.042 75.6142L134.659 93.231C135.058 90.8821 135.68 88.6203 136.577 86.4623Z" fill="#AC8A44"/>
<path d="M193.751 111.786C192.647 114.433 191.257 116.82 189.618 118.986L204.794 134.162C207.438 131.423 209.766 128.448 211.745 125.211C214.09 121.364 215.904 117.243 217.186 112.84C217.622 111.337 217.958 109.806 218.249 108.258H194.95C194.614 109.457 194.228 110.64 193.751 111.786Z" fill="#AC8A44"/>
<path d="M177.317 69.6299C181.089 71.2484 184.368 73.4853 187.148 76.3405C189.929 79.1957 192.128 82.5696 193.751 86.4623C195.1 89.7076 195.855 93.1936 196.079 96.8954H219.037C218.946 94.671 218.962 92.43 218.564 90.2347C218.083 87.5621 216.983 86.1303 215.119 84.267C210.322 79.4696 205.525 74.6722 200.727 69.8748C196.689 65.8368 192.655 61.803 188.618 57.7651C187.036 56.1839 185.455 54.6028 183.874 53.0216C181.621 50.7682 180.23 49.3198 177.043 48.6351C173.13 47.7968 169.129 47.3901 165.129 47.3901C160.144 47.3901 155.355 47.996 150.761 49.2036C150.313 49.3198 149.886 49.4651 149.446 49.5937L167.145 67.2935C170.739 67.5093 174.138 68.2646 177.317 69.6299Z" fill="#AC8A44"/>
<path d="M153.085 69.6299C153.164 69.5967 153.247 69.5718 153.326 69.5386L138.079 54.2915C138.017 54.3247 137.95 54.3579 137.888 54.3911C135.17 55.9225 132.634 57.6738 130.252 59.6077L145.175 74.5311C147.52 72.5308 150.151 70.8915 153.085 69.6299Z" fill="#AC8A44"/>
<path d="M171.627 107.013C170.814 107.86 169.851 108.515 168.747 108.98C168.32 109.159 167.868 109.275 167.411 109.383C166.689 109.557 165.946 109.673 165.153 109.673C164.377 109.673 163.639 109.557 162.925 109.383C162.473 109.275 162.024 109.159 161.593 108.98C160.485 108.515 159.514 107.856 158.679 106.997C158.368 106.677 158.094 106.328 157.833 105.967H146.499C146.644 106.399 146.79 106.831 146.968 107.254C147.284 108.001 147.657 108.702 148.051 109.387C148.865 110.781 149.832 112.06 150.985 113.188C152.703 114.873 154.758 116.205 157.156 117.189C157.347 117.268 157.551 117.322 157.746 117.396C159.982 118.231 162.402 118.666 165.025 118.666C167.266 118.666 169.353 118.372 171.3 117.799C171.889 117.625 172.466 117.434 173.026 117.206C175.445 116.234 177.516 114.902 179.247 113.205C179.849 112.616 180.384 111.981 180.894 111.321C181.367 110.707 181.803 110.063 182.197 109.387C182.596 108.702 182.969 108.001 183.285 107.254C184.243 104.984 184.725 102.56 184.725 99.9831C184.725 99.3191 184.692 98.6675 184.625 98.0243C184.575 97.5263 184.497 97.0366 184.409 96.5469C184.169 95.223 183.804 93.9448 183.285 92.7122C182.322 90.4422 180.982 88.4585 179.251 86.7653C177.52 85.0721 175.454 83.7316 173.047 82.7481C170.64 81.7645 167.992 81.2748 165.099 81.2748C164.738 81.2748 164.394 81.3039 164.045 81.3205C161.568 81.4284 159.265 81.889 157.169 82.7481C156.028 83.217 154.969 83.769 153.977 84.3998C152.89 85.0928 151.886 85.8772 150.981 86.7653C149.251 88.4585 147.914 90.4422 146.964 92.7122C146.889 92.8907 146.835 93.0774 146.769 93.2559C146.644 93.5879 146.532 93.9199 146.424 94.256H157.638C157.949 93.7829 158.293 93.3472 158.679 92.9488C159.331 92.2806 160.095 91.766 160.92 91.3386C161.14 91.2224 161.344 91.0813 161.58 90.9817C162.688 90.5169 163.875 90.2886 165.141 90.2886C166.432 90.2886 167.627 90.521 168.735 90.9817C169.843 91.4465 170.81 92.1022 171.632 92.9488C172.457 93.7954 173.105 94.8121 173.582 95.999C173.835 96.634 174.01 97.3146 174.13 98.0243C174.234 98.6385 174.296 99.2775 174.296 99.9498C174.296 101.419 174.059 102.751 173.586 103.95C173.084 105.142 172.441 106.167 171.627 107.013Z" fill="#AC8A44"/>
</g>
<defs>
<clipPath id="clip0_3_27">
<rect width="332" height="332" fill="white" transform="translate(0 -36)"/>
</clipPath>
</defs>
</svg>
